<svg width="65" height="65" viewBox="0 0 65 65" fill="none" xmlns="http://www.w3.org/2000/svg">
<path d="M57.1308 26.3094L53.6179 22.4241C54.3007 21.2705 54.5444 19.9258 54.3016 18.594C54.0346 17.1295 53.2132 15.8566 51.9889 15.0098L46.9205 11.5044C46.9524 10.6861 46.802 9.86426 46.4691 9.08973C45.8811 7.72215 44.7959 6.66534 43.4129 6.11391L32.2044 1.64489C30.8459 1.10325 29.3656 1.11789 28.0365 1.66347C27.0252 0.637467 25.6206 0 24.0695 0H12.003C8.92992 0 6.42981 2.50011 6.42981 5.57316V53.3936C6.42981 59.7935 11.6364 65 18.0362 65C20.9486 65 23.6137 63.9214 25.6536 62.1432C25.6829 62.1223 25.7115 62.1002 25.7389 62.0756L47.4685 42.52C47.8602 42.1674 47.892 41.5639 47.5395 41.172C47.1867 40.7801 46.5828 40.7484 46.1915 41.101L45.2963 41.9067L42.3877 38.6899L46.9542 32.087L51.1057 36.6785L49.2168 38.3785C48.8251 38.7311 48.7933 39.3346 49.1458 39.7265C49.3343 39.9359 49.5944 40.0424 49.8556 40.0424C50.0831 40.0424 50.3114 39.9616 50.4939 39.7975L56.7346 34.181C57.8389 33.1826 58.488 31.8139 58.5629 30.3272C58.6377 28.8405 58.1292 27.4135 57.1308 26.3094ZM52.4235 18.9363C52.599 19.899 52.389 20.8727 51.8322 21.6777L49.2405 25.4252L43.34 21.3446L46.4639 13.5099L50.903 16.58C51.708 17.1367 52.248 17.9734 52.4235 18.9363ZM43.3512 33.9408L39.4058 31.2121L42.6146 23.164L48.1546 26.9953L43.3512 33.9408ZM37.4619 42.4563L35.4714 41.0797L38.6804 33.0315L42.2653 35.5108L37.4619 42.4563ZM38.9311 27.2484L36.1649 26.1454C35.6754 25.9503 35.1202 26.1888 34.9248 26.6785C34.7296 27.1683 34.9683 27.7234 35.4579 27.9187L38.224 29.0216L34.9452 37.2452L29.6427 35.1309V25.6001L31.6629 26.4056C31.7788 26.4518 31.8985 26.4736 32.016 26.4736C32.3952 26.4736 32.7539 26.2461 32.903 25.8725C33.0982 25.3827 32.8596 24.8276 32.37 24.6323L29.6427 23.5449V14.0141L42.2099 19.0249L38.9311 27.2484ZM27.7337 21.2913H16.9219C16.3947 21.2913 15.9674 21.7187 15.9674 22.2458C15.9674 22.7729 16.3947 23.2003 16.9219 23.2003H27.7337V32.0534H8.33877V23.2003H12.8541C13.3812 23.2003 13.8086 22.7729 13.8086 22.2458C13.8086 21.7187 13.3812 21.2913 12.8541 21.2913H8.33877V12.4382H27.7336V21.2913H27.7337ZM8.33877 33.9624H27.7336V42.8155H8.33877V33.9624ZM29.6427 37.186L34.2382 39.0183L29.6427 50.5442V37.186ZM35.5904 48.5185L36.6488 49.6891L31.7017 54.1412L35.5904 48.5185ZM31.4656 51.1267L34.7461 42.8989L36.3763 44.0262L31.4656 51.1267ZM31.4974 3.41819L42.706 7.88721C43.6152 8.24965 44.3286 8.94452 44.7151 9.84364C44.981 10.4618 45.0702 11.1257 44.9822 11.7756C44.9807 11.7831 44.98 11.7908 44.9786 11.7983C44.9378 12.086 44.8627 12.371 44.7523 12.6478L42.9167 17.2516L29.6427 11.9589V5.57316C29.6427 4.76147 29.4668 3.99037 29.1535 3.29411C29.9194 3.07763 30.7376 3.11518 31.4974 3.41819ZM12.003 1.90896H24.0695C26.0899 1.90896 27.7337 3.55271 27.7337 5.57316V10.5293H8.33877V5.57316C8.33877 3.55271 9.98252 1.90896 12.003 1.90896ZM8.33877 53.3936V44.7245H27.7336V53.3936C27.7336 58.7409 23.3833 63.091 18.0362 63.091C12.6891 63.091 8.33877 58.7408 8.33877 53.3936ZM43.8773 43.1838L38.0678 48.412L36.7057 46.9056L41.2722 40.3027L43.8773 43.1838ZM56.6563 30.2313C56.6072 31.2088 56.1804 32.1085 55.4558 32.7636L52.5247 35.4015L48.0695 30.4742L52.5131 24.049L55.7146 27.5896C56.3711 28.3157 56.7056 29.2537 56.6563 30.2313Z" fill="black"/>
<path d="M17.82 48.8513C15.2961 48.8513 13.2428 50.9046 13.2428 53.4285C13.2428 55.9524 15.2961 58.0057 17.82 58.0057C20.3439 58.0057 22.3972 55.9524 22.3972 53.4285C22.3972 50.9046 20.3439 48.8513 17.82 48.8513ZM17.82 56.0969C16.3487 56.0969 15.1518 54.8999 15.1518 53.4286C15.1518 51.9573 16.3487 50.7604 17.82 50.7604C19.2913 50.7604 20.4882 51.9573 20.4882 53.4286C20.4882 54.8999 19.2913 56.0969 17.82 56.0969Z" fill="black"/>
</svg>
