<svg width="75" height="75" viewBox="0 0 75 75" fill="none" xmlns="http://www.w3.org/2000/svg">
<g clip-path="url(#clip0)">
<path d="M38.4239 30.013L38.4239 12.2954L46.442 20.3905L48.1936 18.6555L37.1894 7.54569L26.1853 18.6555L27.9369 20.3904L35.9589 12.2913L35.9589 30.013L38.4239 30.013Z" fill="black"/>
<path d="M38.4297 39.733L38.4297 42.8903L35.9651 42.8903L35.9651 39.733L38.4297 39.733Z" fill="black"/>
<path d="M38.4297 31.4891L38.4297 34.6464L35.9651 34.6464L35.9651 31.4891L38.4297 31.4891Z" fill="black"/>
<path d="M48.1936 55.7234L46.442 53.9885L38.4278 62.0797L38.4278 44.3738L35.9628 44.3738L35.9628 62.0917L27.9367 53.9885L26.1852 55.7235L37.1894 66.8333L48.1936 55.7234Z" fill="black"/>
</g>
<defs>
<clipPath id="clip0">
<rect width="52.594" height="52.594" fill="white" transform="translate(74.3792 37.1895) rotate(135)"/>
</clipPath>
</defs>
</svg>
