<svg width="80" height="80" viewBox="0 0 80 80" fill="none" xmlns="http://www.w3.org/2000/svg">
<g clip-path="url(#clip0)">
<path d="M31.8785 38.1898L13.0597 38.1898L21.6579 29.6733L19.8151 27.8129L8.01483 39.501L19.8151 51.189L21.6579 49.3285L13.0554 40.808L31.8785 40.808L31.8785 38.1898Z" fill="black"/>
<path d="M42.2026 38.1836L45.5561 38.1836L45.5561 40.8013L42.2026 40.8013L42.2026 38.1836Z" fill="black"/>
<path d="M33.4463 38.1837L36.7997 38.1837L36.7997 40.8015L33.4463 40.8015L33.4463 38.1837Z" fill="black"/>
<path d="M59.1869 27.8129L57.3442 29.6734L65.9383 38.1857L47.1319 38.1857L47.1319 40.8039L65.9511 40.8039L57.3442 49.3287L59.1871 51.1892L70.9874 39.501L59.1869 27.8129Z" fill="black"/>
</g>
<defs>
<clipPath id="clip0">
<rect width="55.8628" height="55.8628" fill="white" transform="translate(39.501) rotate(45)"/>
</clipPath>
</defs>
</svg>
