<svg width="85" height="85" viewBox="0 0 85 85" fill="none" xmlns="http://www.w3.org/2000/svg">
<g clip-path="url(#clip0)">
<path d="M44.9998 67.5617L44.9996 67.5619C44.7287 67.7837 44.3583 67.8539 44.0263 67.7491C43.9878 67.737 43.9451 67.7218 43.9011 67.7013L19.2743 56.2729C18.9116 56.1047 18.6774 55.7438 18.6714 55.344L18.9214 55.3403L18.6714 55.344L18.6136 51.4364L18.6136 51.4363C18.6041 50.7753 19.1446 50.4305 19.6337 50.4112C19.8819 50.4013 20.1435 50.4703 20.3486 50.6387C20.5595 50.8117 20.6909 51.0739 20.6958 51.4055L20.6958 51.4055L20.7439 54.6593L43.2738 65.1146L42.7646 30.6577L20.2345 20.2023L20.6329 47.1573L20.6329 47.1575C20.6376 47.4837 20.5124 47.7472 20.31 47.9269C20.1126 48.1021 19.8557 48.1861 19.6067 48.1898C19.3577 48.1934 19.0984 48.1171 18.896 47.9478C18.6884 47.774 18.5557 47.5143 18.5508 47.188L18.8008 47.1843L18.5508 47.188L18.128 18.5754L18.128 18.5752C18.1236 18.2618 18.2653 17.9545 18.5086 17.7551L44.9998 67.5617ZM44.9998 67.5617L61.568 53.9695C61.568 53.9695 61.568 53.9695 61.568 53.9695C61.8131 53.7684 61.9534 53.4662 61.9487 53.1492L61.542 25.6337C61.5372 25.3074 61.4044 25.0476 61.1968 24.8739C60.9944 24.7046 60.735 24.6282 60.4861 24.6319C60.2371 24.6355 59.9801 24.7195 59.7827 24.8947C59.5803 25.0744 59.4552 25.338 59.4599 25.6643L59.4599 25.6643L59.8592 52.678L45.3484 64.5824L44.8443 30.4751L59.355 18.5708L59.3983 21.4921C59.403 21.8184 59.5358 22.0781 59.7434 22.2519C59.9457 22.4212 60.2051 22.4976 60.4541 22.4939C60.703 22.4902 60.96 22.4063 61.1574 22.2311C61.3598 22.0513 61.485 21.7878 61.4804 21.4616L61.4804 21.4614L61.4053 16.3808L61.4053 16.3806C61.3992 15.9859 61.161 15.6181 60.8025 15.4517L36.1756 4.02332C35.8129 3.85503 35.3861 3.90916 35.0769 4.16282L18.5088 17.755L44.9998 67.5617ZM21.1111 18.3135L35.8921 6.18739L58.4222 16.6427L43.6411 28.7688L21.1111 18.3135Z" fill="black" stroke="black" stroke-width="0.5"/>
</g>
<defs>
<clipPath id="clip0">
<rect width="63.9318" height="63.9318" fill="white" transform="translate(84.9033 26.9116) rotate(114.894)"/>
</clipPath>
</defs>
</svg>
