<svg width="74" height="74" viewBox="0 0 74 74" fill="none" xmlns="http://www.w3.org/2000/svg">
<path fill-rule="evenodd" clip-rule="evenodd" d="M35.7952 29.467V4.62498C35.7952 3.96013 36.3351 3.42017 37 3.42017C37.6648 3.42017 38.2048 3.96013 38.2048 4.62498V29.467L45.3978 22.2728C45.8684 21.8034 46.6315 21.8034 47.1021 22.2728C47.5716 22.7434 47.5716 23.5065 47.1021 23.9771L39.908 31.1702H69.375C70.0398 31.1702 70.5798 31.7101 70.5798 32.375V41.625C70.5798 42.2898 70.0398 42.8298 69.375 42.8298H39.908L47.1021 50.0228C47.5716 50.4934 47.5716 51.2565 47.1021 51.7271C46.6315 52.1966 45.8684 52.1966 45.3978 51.7271L38.2048 44.533V69.375C38.2048 70.0398 37.6648 70.5798 37 70.5798C36.3351 70.5798 35.7952 70.0398 35.7952 69.375V44.533L28.6021 51.7271C28.1315 52.1966 27.3684 52.1966 26.8978 51.7271C26.4284 51.2565 26.4284 50.4934 26.8978 50.0228L34.092 42.8298H4.62498C3.96013 42.8298 3.42017 42.2898 3.42017 41.625V32.375C3.42017 31.7101 3.96013 31.1702 4.62498 31.1702H34.092L26.8978 23.9771C26.4284 23.5065 26.4284 22.7434 26.8978 22.2728C27.3684 21.8034 28.1315 21.8034 28.6021 22.2728L35.7952 29.467ZM5.82979 40.4202H68.1702V33.5798H5.82979V40.4202Z" fill="black"/>
</svg>
