<svg width="59" height="34" viewBox="0 0 59 34" fill="none" xmlns="http://www.w3.org/2000/svg">
<path d="M28.144 29.824V34H0.0640001V30.736L21.184 4.576H0.4V0.399998H27.52V3.664L6.496 29.824H28.144ZM47.4989 8.32C50.7309 8.32 53.2909 9.264 55.1789 11.152C57.0989 13.008 58.0589 15.744 58.0589 19.36V34H53.4509V19.888C53.4509 17.424 52.8589 15.568 51.6749 14.32C50.4909 13.072 48.7949 12.448 46.5869 12.448C44.0909 12.448 42.1229 13.184 40.6829 14.656C39.2429 16.096 38.5229 18.176 38.5229 20.896V34H33.9149V8.56H38.3309V12.4C39.2589 11.088 40.5069 10.08 42.0749 9.376C43.6749 8.672 45.4829 8.32 47.4989 8.32Z" fill="black"/>
</svg>
