<svg width="14" height="14" viewBox="0 0 14 14" fill="none" xmlns="http://www.w3.org/2000/svg">
<path d="M10.2637 8.92993C9.82263 8.4945 9.27201 8.4945 8.83376 8.92993C8.49945 9.26142 8.16514 9.59291 7.83646 9.93001C7.74656 10.0227 7.67071 10.0424 7.56115 9.98058C7.34483 9.86259 7.11447 9.76708 6.90658 9.63785C5.93738 9.02825 5.1255 8.24448 4.40632 7.36239C4.04954 6.92415 3.73209 6.45501 3.51016 5.92688C3.46521 5.82013 3.47363 5.7499 3.56072 5.66281C3.89503 5.33975 4.22091 5.00826 4.54959 4.67678C5.00751 4.21606 5.00751 3.6767 4.54678 3.21317C4.28552 2.94911 4.02426 2.69066 3.76299 2.42659C3.4933 2.15691 3.22642 1.88442 2.95392 1.61754C2.51286 1.18773 1.96224 1.18773 1.52399 1.62035C1.18688 1.95184 0.863807 2.29175 0.521074 2.61762C0.203625 2.91821 0.0434951 3.28621 0.00978369 3.71602C-0.0435928 4.41552 0.127774 5.07569 0.369372 5.719C0.863807 7.05056 1.6167 8.23324 2.52971 9.3176C3.76299 10.784 5.23506 11.9442 6.95715 12.7814C7.73251 13.1578 8.53597 13.4472 9.40966 13.4949C10.0108 13.5286 10.5334 13.3769 10.952 12.9078C11.2385 12.5875 11.5616 12.2954 11.865 11.9892C12.3145 11.5341 12.3173 10.9835 11.8706 10.534C11.3368 9.99743 10.8003 9.46368 10.2637 8.92993Z" fill="white"/>
<path d="M9.7274 6.69118L10.764 6.5142C10.6011 5.56187 10.1516 4.69944 9.46894 4.01399C8.74695 3.29203 7.83394 2.83693 6.82821 2.69647L6.68213 3.73869C7.4603 3.84825 8.16824 4.1994 8.72729 4.75844C9.25544 5.28657 9.60098 5.95516 9.7274 6.69118Z" fill="white"/>
<path d="M11.3479 2.18557C10.1512 0.988845 8.63694 0.233165 6.96542 0L6.81934 1.04222C8.26331 1.24448 9.57244 1.89903 10.6063 2.93001C11.5867 3.91043 12.23 5.1493 12.4632 6.51177L13.4998 6.33478C13.2273 4.756 12.4829 3.3233 11.3479 2.18557Z" fill="white"/>
</svg>
