<svg width="25" height="25" viewBox="0 0 25 25" fill="none" xmlns="http://www.w3.org/2000/svg">
<path d="M12.917 14.4604C14.0216 14.4604 14.917 13.565 14.917 12.4604C14.917 11.3559 14.0216 10.4604 12.917 10.4604C11.8124 10.4604 10.917 11.3559 10.917 12.4604C10.917 13.565 11.8124 14.4604 12.917 14.4604Z" stroke="#CACCCF" stroke-width="1.33333" stroke-linecap="round" stroke-linejoin="round"/>
<path d="M2.91699 12.4604L4.41699 14.4604C5.44887 15.7167 6.74636 16.7285 8.2161 17.4233C9.68585 18.118 11.2913 18.4783 12.917 18.4783C14.5427 18.4783 16.1481 18.118 17.6179 17.4233C19.0876 16.7285 20.3851 15.7167 21.417 14.4604L22.917 12.4604" stroke="#CACCCF" stroke-width="1.33333" stroke-linecap="round" stroke-linejoin="round"/>
<path d="M2.91699 12.4605L4.41699 10.4605C5.44887 9.2043 6.74636 8.19243 8.2161 7.4977C9.68585 6.80296 11.2913 6.44263 12.917 6.44263C14.5427 6.44263 16.1481 6.80296 17.6179 7.4977C19.0876 8.19243 20.3851 9.2043 21.417 10.4605L22.917 12.4605" stroke="#CACCCF" stroke-width="1.33333" stroke-linecap="round" stroke-linejoin="round"/>
</svg>
