<svg width="26" height="26" viewBox="0 0 26 26" fill="none" xmlns="http://www.w3.org/2000/svg">
<g clip-path="url(#clip0)">
<path d="M16.2498 12.9545L6.56233 22.642L6.56228 22.642C5.81247 23.3919 5.81247 24.6077 6.56228 25.3576L6.56249 25.3578C7.31241 26.1074 8.528 26.1075 9.27793 25.3578L9.27804 25.3577L20.3234 14.3123L20.3235 14.3122C21.0732 13.5623 21.0732 12.3466 20.3235 11.5967L20.3234 11.5966L9.27804 0.551303L9.27188 0.54515L9.26562 0.539103C8.5027 -0.197707 7.28695 -0.176556 6.55013 0.586372L6.55009 0.586408C5.83144 1.33059 5.83137 2.51041 6.55015 3.25462L6.55618 3.26087L6.56233 3.26701L16.2498 12.9545Z" fill="#4D43E2" stroke="#4D43E2" stroke-width="2"/>
</g>
<defs>
<clipPath id="clip0">
<rect width="26" height="26" fill="white" transform="translate(26 26) rotate(180)"/>
</clipPath>
</defs>
</svg>
