<svg width="26" height="26" viewBox="0 0 26 26" fill="none" xmlns="http://www.w3.org/2000/svg">
<g clip-path="url(#clip0)">
<path d="M16.5296 12.9944L6.84212 22.6819L6.84206 22.6819C6.09226 23.4319 6.09226 24.6476 6.84206 25.3975L6.84227 25.3978C7.59219 26.1473 8.80779 26.1474 9.55772 25.3977L9.55782 25.3976L20.6032 14.3523L20.6033 14.3522C21.3529 13.6023 21.3529 12.3866 20.6033 11.6367L20.6032 11.6366L9.55782 0.59122L9.55167 0.585067L9.54541 0.57902C8.78249 -0.15779 7.56673 -0.136639 6.82991 0.626289L6.82988 0.626325C6.11123 1.37051 6.11116 2.55033 6.82993 3.29453L6.83597 3.30078L6.84211 3.30693L16.5296 12.9944Z" fill="black" stroke="black" stroke-width="2"/>
</g>
<defs>
<clipPath id="clip0">
<rect width="26" height="26" fill="white" transform="translate(26 26) rotate(180)"/>
</clipPath>
</defs>
</svg>
