<svg width="17" height="12" viewBox="0 0 17 12" fill="none" xmlns="http://www.w3.org/2000/svg">
<g clip-path="url(#clip0)">
<path d="M15.9522 1.00459C15.9024 1.00459 15.9024 1.00459 15.9522 1.00459C15.9522 0.956758 15.9522 0.956758 15.9522 0.956758C15.9522 0.956758 15.9522 0.956758 15.9522 0.908926C15.9522 0.908926 15.9522 0.908926 15.9522 0.861094C15.9522 0.861094 15.9522 0.861094 15.9522 0.813262C15.9522 0.813262 15.9522 0.813262 15.9522 0.76543C15.9522 0.76543 15.9522 0.76543 15.9522 0.717598C15.9522 0.717598 15.9522 0.717598 15.9522 0.669766C15.9522 0.669766 15.9522 0.669766 15.9522 0.621934C15.9522 0.621934 15.9522 0.621934 15.9522 0.574102C15.9522 0.574102 15.9522 0.574102 15.9522 0.52627C15.9522 0.52627 15.9522 0.52627 15.9522 0.478438C15.9522 0.478438 15.9522 0.478438 15.9522 0.430606C15.9522 0.430606 15.9522 0.430606 15.9522 0.382773C15.9522 0.382773 15.9522 0.382773 15.9522 0.334941C15.9522 0.334941 15.9522 0.334941 15.9522 0.287109C15.9522 0.287109 15.9522 0.287109 15.9024 0.287109C15.9024 0.287109 15.9024 0.287109 15.8525 0.287109C15.8525 0.287109 15.8525 0.287109 15.8027 0.287109C15.8027 0.287109 15.8027 0.287109 15.7528 0.287109C15.7528 0.287109 15.7528 0.287109 15.703 0.287109C15.703 0.287109 15.703 0.287109 15.6531 0.287109C15.6531 0.287109 15.6531 0.287109 15.6033 0.287109C15.6033 0.287109 15.6033 0.287109 15.5534 0.287109C15.5534 0.287109 15.5534 0.287109 15.5036 0.287109C15.5036 0.287109 15.5036 0.287109 15.4537 0.287109C15.4537 0.287109 15.4537 0.287109 15.4039 0.287109C15.4039 0.287109 15.4039 0.287109 15.354 0.287109C15.354 0.287109 15.354 0.287109 15.3042 0.287109C15.3042 0.287109 15.3042 0.287109 15.2543 0.287109C15.2543 0.287109 15.2543 0.287109 15.2045 0.287109C15.2045 0.287109 15.2045 0.287109 15.1546 0.287109C15.1546 0.287109 15.1546 0.287109 15.1048 0.287109C15.1048 0.287109 15.1048 0.287109 15.0549 0.287109C15.0549 0.287109 15.0549 0.287109 15.0051 0.287109C15.0051 0.287109 15.0051 0.287109 14.9552 0.287109C14.9552 0.287109 14.9552 0.287109 14.9054 0.287109C14.9054 0.287109 14.9054 0.287109 14.8555 0.287109C14.8555 0.287109 14.8555 0.287109 14.8057 0.287109C14.8057 0.287109 14.8057 0.287109 14.7558 0.287109C14.7558 0.287109 14.7558 0.287109 14.706 0.287109C14.706 0.287109 14.706 0.287109 14.6561 0.287109C14.6561 0.287109 14.6561 0.287109 14.6063 0.287109H14.5564H14.5066H1.54537H1.49552H1.44567C1.44567 0.287109 1.44567 0.287109 1.39582 0.287109C1.39582 0.287109 1.39582 0.287109 1.34597 0.287109C1.34597 0.287109 1.34597 0.287109 1.29612 0.287109C1.29612 0.287109 1.29612 0.287109 1.24627 0.287109C1.24627 0.287109 1.24627 0.287109 1.19642 0.287109C1.19642 0.287109 1.19642 0.287109 1.14657 0.287109C1.14657 0.287109 1.14657 0.287109 1.09672 0.287109C1.09672 0.287109 1.09672 0.287109 1.04686 0.287109C1.04686 0.287109 1.04686 0.287109 0.997014 0.287109C0.997014 0.287109 0.997014 0.287109 0.947163 0.287109C0.947163 0.287109 0.947163 0.287109 0.897313 0.287109C0.897313 0.287109 0.897313 0.287109 0.847462 0.287109C0.847462 0.287109 0.847462 0.287109 0.797611 0.287109C0.797611 0.287109 0.797611 0.287109 0.747761 0.287109C0.747761 0.287109 0.747761 0.287109 0.69791 0.287109C0.69791 0.287109 0.69791 0.287109 0.648059 0.287109C0.648059 0.287109 0.648059 0.287109 0.598208 0.287109C0.598208 0.287109 0.598208 0.287109 0.548358 0.287109C0.548358 0.287109 0.548358 0.287109 0.498507 0.287109C0.498507 0.287109 0.498507 0.287109 0.448656 0.287109C0.448656 0.287109 0.448656 0.287109 0.398806 0.287109C0.398806 0.287109 0.398806 0.287109 0.348955 0.287109C0.348955 0.287109 0.348955 0.287109 0.299104 0.287109C0.299104 0.287109 0.299104 0.287109 0.249254 0.287109C0.249254 0.287109 0.249254 0.287109 0.199403 0.287109C0.199403 0.287109 0.199403 0.287109 0.149552 0.287109C0.149552 0.287109 0.149552 0.287109 0.0997014 0.287109C0.0997014 0.287109 0.0997014 0.287109 0.0997014 0.334941C0.0997014 0.334941 0.0997014 0.334941 0.0997014 0.382773C0.0997014 0.382773 0.0997014 0.382773 0.0997014 0.430606C0.0997014 0.430606 0.0997014 0.430606 0.0997014 0.478438C0.0997014 0.478438 0.0997014 0.478438 0.0997014 0.52627C0.0997014 0.52627 0.0997014 0.52627 0.0997014 0.574102C0.0997014 0.574102 0.0997014 0.574102 0.0997014 0.621934C0.0997014 0.621934 0.0997014 0.621934 0.0997014 0.669766C0.0997014 0.669766 0.0997014 0.669766 0.0997014 0.717598C0.0997014 0.717598 0.0997014 0.717598 0.0997014 0.76543C0.0997014 0.76543 0.0997014 0.76543 0.0997014 0.813262C0.0997014 0.813262 0.0997014 0.813262 0.0997014 0.861094C0.0997014 0.861094 0.0997014 0.861094 0.0997014 0.908926C0.0997014 0.908926 0.0997014 0.908926 0.0997014 0.956758C0.0997014 0.956758 0.0997014 0.956758 0.0997014 1.00459C0.0498507 1.19592 0 1.33941 0 1.48291V9.5187C0 10.3318 0.648059 11.0015 1.49552 11.0015C1.49552 11.0015 1.49552 11.0015 1.54537 11.0015C1.54537 11.0015 1.54537 11.0015 1.59522 11.0015H14.4567C15.1546 11.0015 15.7528 10.571 15.9522 9.94919C15.9522 9.90135 15.9522 9.90135 15.9522 9.85352C16.0021 9.71003 16.0021 9.61436 16.0021 9.47087V1.48291C16.0021 1.33941 16.0021 1.19592 15.9522 1.00459ZM1.24627 1.10025C1.29612 1.10025 1.29612 1.10025 1.24627 1.10025C1.29612 1.05242 1.29612 1.05242 1.29612 1.05242C1.29612 1.05242 1.29612 1.05242 1.34597 1.05242C1.34597 1.05242 1.34597 1.05242 1.39582 1.05242H1.44567H14.4567H14.5066C14.5066 1.05242 14.5066 1.05242 14.5564 1.05242C14.5564 1.05242 14.5564 1.05242 14.6063 1.05242L8.37492 7.27059C8.27522 7.36625 8.12566 7.41409 8.02596 7.41409C7.87641 7.41409 7.77671 7.36625 7.67701 7.27059L1.24627 1.10025ZM1.04686 2.34389L4.33701 5.5008L1.04686 8.65772V2.34389ZM14.4567 9.99702H1.59522C1.49552 9.99702 1.34597 9.94919 1.24627 9.90135L5.08477 6.21829L6.8794 7.94024C7.1785 8.22723 7.57731 8.37073 7.97611 8.37073C8.37492 8.37073 8.77372 8.22723 9.07283 7.94024L10.9173 6.17045L14.7558 9.85352C14.706 9.99702 14.5564 9.99702 14.4567 9.99702ZM14.9552 8.65772L11.6651 5.5008L14.9552 2.34389V8.65772Z" fill="white"/>
</g>
<defs>
<clipPath id="clip0">
<rect width="16.0021" height="11.0014" fill="white"/>
</clipPath>
</defs>
</svg>
