<svg width="25" height="25" viewBox="0 0 25 25" fill="none" xmlns="http://www.w3.org/2000/svg">
<path d="M12.6129 14.2007C14.27 14.2007 15.6132 12.8575 15.6132 11.2007C15.6132 9.54383 14.27 8.20068 12.6129 8.20068C10.9559 8.20068 9.61267 9.54383 9.61267 11.2007C9.61267 12.8575 10.9559 14.2007 12.6129 14.2007Z" fill="white" stroke="#F9F9F9" stroke-width="1.33333" stroke-linecap="round" stroke-linejoin="round"/>
<path d="M18.2704 16.8576L14.0271 21.1006C13.8415 21.2864 13.6211 21.4337 13.3786 21.5343C13.136 21.6348 12.876 21.6865 12.6134 21.6865C12.3509 21.6865 12.0909 21.6348 11.8483 21.5343C11.6057 21.4337 11.3854 21.2864 11.1998 21.1006L6.9554 16.8576C5.83652 15.7388 5.07456 14.3133 4.76589 12.7615C4.45721 11.2097 4.61568 9.60115 5.22125 8.13937C5.82681 6.67758 6.85229 5.42818 8.168 4.54914C9.4837 3.67011 11.0305 3.20093 12.6129 3.20093C14.1953 3.20093 15.7421 3.67011 17.0579 4.54914C18.3736 5.42818 19.399 6.67758 20.0046 8.13937C20.6102 9.60115 20.7686 11.2097 20.46 12.7615C20.1513 14.3133 19.3893 15.7388 18.2704 16.8576Z" fill="white" stroke="#F9F9F9" stroke-width="1.33333" stroke-linecap="round" stroke-linejoin="round"/>
</svg>
