<svg width="19" height="19" viewBox="0 0 19 19" fill="none" xmlns="http://www.w3.org/2000/svg">
<g clip-path="url(#clip0)">
<path d="M9.49997 -0.000244141C6.00783 -0.000244141 3.16663 2.84096 3.16663 6.3331C3.16663 7.38144 3.42873 8.42087 3.927 9.34282L9.15363 18.7957C9.22321 18.9217 9.3558 18.9998 9.49997 18.9998C9.64414 18.9998 9.77673 18.9217 9.84631 18.7957L15.0749 9.3397C15.5712 8.42087 15.8333 7.3814 15.8333 6.33306C15.8333 2.84096 12.9921 -0.000244141 9.49997 -0.000244141ZM9.49997 9.49976C7.7539 9.49976 6.33332 8.07917 6.33332 6.3331C6.33332 4.58703 7.7539 3.16645 9.49997 3.16645C11.246 3.16645 12.6666 4.58703 12.6666 6.3331C12.6666 8.07917 11.246 9.49976 9.49997 9.49976Z" fill="black"/>
</g>
<defs>
<clipPath id="clip0">
<rect width="19" height="19" fill="white" transform="translate(0 -0.000244141)"/>
</clipPath>
</defs>
</svg>
