<svg width="17" height="17" viewBox="0 0 17 17" fill="none" xmlns="http://www.w3.org/2000/svg">
<path fill-rule="evenodd" clip-rule="evenodd" d="M14.1377 2.83906C12.6467 1.34628 10.6637 0.523825 8.55119 0.522949C4.19814 0.522949 0.655397 4.0656 0.653646 8.41981C0.653063 9.81172 1.01668 11.1705 1.70781 12.3681L0.587402 16.4604L4.77401 15.3622C5.92759 15.9915 7.22631 16.3231 8.54798 16.3235H8.55129C12.9038 16.3235 16.447 12.7805 16.4486 8.42614C16.4495 6.31586 15.6288 4.33174 14.1377 2.83906ZM8.55119 14.9898H8.54847C7.37066 14.9893 6.21553 14.6727 5.20756 14.0748L4.96798 13.9325L2.48358 14.5842L3.1467 12.162L2.99058 11.9136C2.33348 10.8685 1.98651 9.66055 1.98709 8.4203C1.98845 4.80119 4.93315 1.85678 8.55382 1.85678C10.3071 1.85736 11.9552 2.54101 13.1945 3.78175C14.4338 5.02249 15.1159 6.67169 15.1153 8.42565C15.1137 12.045 12.1692 14.9898 8.55119 14.9898ZM12.1517 10.0736C11.9544 9.97475 10.9842 9.49752 10.8033 9.43157C10.6226 9.36571 10.4908 9.33293 10.3594 9.5304C10.2278 9.72787 9.84971 10.1724 9.73454 10.304C9.61936 10.4357 9.50438 10.4523 9.30701 10.3534C9.10964 10.2547 8.47386 10.0462 7.72007 9.37398C7.13351 8.85074 6.7375 8.20454 6.62233 8.00708C6.50735 7.80941 6.62136 7.71292 6.7089 7.60436C6.92252 7.33909 7.13643 7.06098 7.20218 6.92937C7.26804 6.79766 7.23506 6.68239 7.18565 6.58365C7.13643 6.48492 6.74178 5.51363 6.57739 5.1184C6.41708 4.73378 6.25453 4.78572 6.13333 4.77969C6.01835 4.77395 5.88674 4.77279 5.75512 4.77279C5.62361 4.77279 5.4098 4.82211 5.22887 5.01977C5.04803 5.21733 4.53831 5.69466 4.53831 6.66595C4.53831 7.63724 5.2454 8.57555 5.34404 8.70726C5.44268 8.83897 6.73556 10.8321 8.715 11.6868C9.18581 11.8903 9.55331 12.0116 9.83998 12.1025C10.3127 12.2527 10.7428 12.2315 11.0829 12.1807C11.462 12.124 12.2503 11.7033 12.4148 11.2424C12.5792 10.7815 12.5792 10.3864 12.5298 10.304C12.4806 10.2217 12.349 10.1724 12.1517 10.0736Z" fill="white"/>
</svg>
